<svg width="75" height="66" viewBox="0 0 75 66" fill="none" xmlns="http://www.w3.org/2000/svg">
<g clip-path="url(#clip0_6730_105329)">
<path d="M14.4569 47.0596C19.95 47.0596 24.403 43.3473 24.403 38.7681C24.403 34.1888 19.95 30.4766 14.4569 30.4766C8.96386 30.4766 4.51085 34.1888 4.51085 38.7681C4.51085 43.3473 8.96386 47.0596 14.4569 47.0596Z" fill="#C3846C"/>
<path d="M59.8055 47.0596C65.2986 47.0596 69.7516 43.3473 69.7516 38.7681C69.7516 34.1888 65.2986 30.4766 59.8055 30.4766C54.3125 30.4766 49.8594 34.1888 49.8594 38.7681C49.8594 43.3473 54.3125 47.0596 59.8055 47.0596Z" fill="#C3846C"/>
<path d="M37.1296 60.2245C50.851 60.2245 61.9743 50.337 61.9743 38.1402C61.9743 25.9434 50.851 16.056 37.1296 16.056C23.4082 16.056 12.2848 25.9434 12.2848 38.1402C12.2848 50.337 23.4082 60.2245 37.1296 60.2245Z" fill="#E1A893"/>
<path d="M37.1261 61.0523C48.5173 61.0523 57.7517 50.7098 57.7517 37.9517C57.7517 25.1935 48.5173 14.851 37.1261 14.851C25.7349 14.851 16.5005 25.1935 16.5005 37.9517C16.5005 50.7098 25.7349 61.0523 37.1261 61.0523Z" fill="#C3846C"/>
<path d="M65.7635 31.8081C66.0141 16.6458 51.3382 4.26553 33.9595 5.92383C20.5922 7.19932 9.88878 16.8571 8.62835 28.7539C8.50026 29.965 8.46685 31.1597 8.5244 32.3345C8.5244 32.3345 17.8226 32.8295 26.1352 23.5662C26.1352 23.5662 31.6428 28.843 37.1338 28.843C42.6247 28.843 47.6386 23.5662 47.6386 23.5662C47.6386 23.5662 51.8821 31.7933 65.7673 31.8081H65.7635Z" fill="#523725"/>
<path d="M29.1323 39.583C30.8765 39.583 32.2905 37.7407 32.2905 35.468C32.2905 33.1953 30.8765 31.3529 29.1323 31.3529C27.388 31.3529 25.9741 33.1953 25.9741 35.468C25.9741 37.7407 27.388 39.583 29.1323 39.583Z" fill="black"/>
<path d="M43.3514 39.583C45.0957 39.583 46.5097 37.7407 46.5097 35.468C46.5097 33.1953 45.0957 31.3529 43.3514 31.3529C41.6072 31.3529 40.1932 33.1953 40.1932 35.468C40.1932 37.7407 41.6072 39.583 43.3514 39.583Z" fill="black"/>
<path d="M25.4926 31.6346C24.0476 32.0128 22.9582 33.6733 22.9582 35.6668C22.9582 37.6603 24.0476 39.3223 25.4926 39.699C24.8477 38.5719 24.462 37.1796 24.462 35.6668C24.462 34.154 24.8477 32.7617 25.4926 31.6346Z" fill="#99573E"/>
<path d="M21.6273 31.9554C20.5499 32.6109 19.798 34.0242 19.798 35.6757C19.798 37.3271 20.5499 38.7405 21.6273 39.396C21.1029 38.2749 20.8001 37.0137 20.8001 35.6757C20.8001 34.3377 21.1029 33.0765 21.6273 31.9554Z" fill="#A46851"/>
<path d="M47.1164 31.6346C48.5615 32.0128 49.6509 33.6733 49.6509 35.6668C49.6509 37.6603 48.5615 39.3223 47.1164 39.699C47.7614 38.5719 48.1471 37.1796 48.1471 35.6668C48.1471 34.154 47.7614 32.7617 47.1164 31.6346Z" fill="#99573E"/>
<path d="M50.9715 31.9554C52.0489 32.6109 52.8007 34.0242 52.8007 35.6757C52.8007 37.3271 52.0489 38.7405 50.9715 39.396C51.4959 38.2749 51.7987 37.0137 51.7987 35.6757C51.7987 34.3377 51.4959 33.0765 50.9715 31.9554Z" fill="#A46851"/>
<path d="M36.3376 47.9271C38.1811 47.9271 39.6756 46.4326 39.6756 44.589C39.6756 42.7455 38.1811 41.251 36.3376 41.251C34.494 41.251 32.9995 42.7455 32.9995 44.589C32.9995 46.4326 34.494 47.9271 36.3376 47.9271Z" fill="#5C2F17"/>
</g>
<defs>
<clipPath id="clip0_6730_105329">
<rect width="74.1379" height="65.9004" fill="white" transform="scale(1.00154)"/>
</clipPath>
</defs>
</svg>
